<?xml version='1.0' encoding='utf-8'?>
<svg xmlns="http://www.w3.org/2000/svg" enable-background="new 0 0 5000 3755.9507" version="1.1" viewBox="0 0 5e3 3756"> <path d="m3642.8 287.7c-0.1077-41.56-7.6206-83.205-15.011-83.205-7.1409 0-8.4817 101.53-1.4341 108.58 11.114 11.114 16.518 2.7748 16.445-25.375z"/> <path d="m4992.1 3115.3c-10.834-17.529-192.74-50.232-278.34-50.039-29.506 0.0667-86.594-28.513-86.594-43.352 0-3.4041 74.323-4.1958 167.09-1.7803 160.51 4.1794 166.99 3.8308 164.54-8.8606-2.3916-12.436-13.452-13.322-188.6-15.1-156.72-1.5903-186.69-3.5449-190.09-12.392-5.0723-13.218-40.574-13.751-51.347-0.7705-35.804 43.142-135.28 0.2219-135.28-58.368 0-30.899-25.559-45.564-70.542-40.475l-40.574 4.5906c-33.892-51.215-51.535-82.963-100.36-172.58-142.39-261.32-202.44-296.9-236.67-363.12-30.447-58.908-151.94-183.77-210.84-247.63-39.112-42.406-135.94-131.59-178.29-171.05 3.4001-88.509 43.482-1167.8 40.631-1478.5l-86.2-1.9838c-105.78-2.4346-92.391-61.119-98.202 430.4-1.2124 102.52-13.318 849.67-16.352 849.52-22.4-1.1466-36.56-28.725-33.236-64.732 4.5754-49.565 10.99-1102.3 11.397-1160.1-102.52 0-200.11-4.4446-394.69-136.91-202.35-137.76-289.95-174-449.81-186.11-82.003-6.2117-228.14 26.544-271.26 60.802-3.895 3.0942-24.732 14.964-46.304 26.377-136.71 72.33-283.97 218.67-520.2 239.06-103.26 8.9117-96.594-31.3 7.1522-43.169 100.2-11.464 212.37-45.754 251.31-76.83 18.87-15.058 73.3-42.48 167-103.6 231.42-150.96 384.07-180.78 587.16-114.69 96.24 31.316 150.56 61.652 302.13 168.73 143.48 101.36 203.27 123.87 329.07 123.87 91.427 0 83.369-11.234-12.515-17.449-132.61-8.5948-215.34-46.415-362.42-165.68-16.144-13.092-35.797-26.579-43.672-29.973-81.529-35.133-345.98-273.96-775.55-2.9464-276.78 174.62-289.94 198.15-594.83 204.93-79.841 1.7751-146.76 3.5117-148.71 3.8587-1.9476 0.3471 1.6129 4.5555 7.9124 9.3517 9.9126 7.5476 12.1 37.755 16.264 224.6 0.0162 0.7263 35.447 1289.8 36.839 1310.7 5.0477 75.804-35.386 122.42-195.89 225.84-27.128 17.48-63.418 58.978-68.118 77.894-10.869 43.738-53.606 115.91-125.8 212.44-55.64 74.394-19.559 50.896-135.78 166.28-114.53 113.69-82.202 98.09-170.86 216.54-30.787 41.132-58.041 80.167-60.565 86.745-5.2072 13.57-25.891 11.96-211.64 11.96 12.788-82.08 27.879-240.71 33.266-269.09 8.8442-46.591-109.39-69.978-246.64-48.787-99.704 15.394-96.142 6.8591-78.416 187.88 13.56 138.49 20.935 128.36-89.35 122.67-96.925-4.9998-108.01-3.5669-104.65 13.524 2.5701 13.084 25.463 11.502 207.12 11.502 18.134 146.5 25.059 138.86-28.115 152.36-15.579 3.9546-41.071 10.943-56.65 15.53-127.33 37.489-171.63 321.59-73.764 473.02 55.21 85.419 43.07 83.005 452.61 90.023 429.44 7.3589 648.64 5.521 647.94 5.521 8.4727-5.6536 473.54-315.72 477.17-319.16 23.291-22.098-29.696-52.607-91.366-52.607-83.529 0-32.27-55.072 132.69-27.981 69.333 11.386 78.47 8.1047 150.69-54.123 68.986-59.445 69.277-59.64 118.91-79.761 63.66-25.81 78.531-46.263 58.419-80.35-16.843-28.546-49.862-110.13-49.862-123.2 0-13.876 247.84-6.8794 247.84-2.3059 0 36.364-48.261 198.4-26.498 328.92 10.922 65.5 7.7534 77.274 105.22 101.89 41.31 10.434 122.8 23.364 164.97 16.38 44.778-7.416 64.929-44.214 85.087-80.929 17.833-32.48 24.211-67.779 29.239-104.11 5.7095-41.252 11.681-78.589 13.271-82.971 2.9856-8.2288 90.032-17.829 161.66-17.829h40.388c57.371-64.459 115.34-132.44 184.32-184.52 32.797-24.761 45.189-48.147 25.513-48.147-35.36 0-180.8 92.37-181.18 115.07-0.2253 13.376 21.634 2.4299 60.101-30.096 57.07-48.254 67.538-38.275 45.834-23.436-22.066 15.086-121.33 117.66-144.97 141.73-178.27 16.79-211.66 24.78-180.32-33.782 9.7239-18.169 113.05-20.98 113.05-3.0752 0 5.8423 2.2695 10.622 5.043 10.622 7.3013 0 65.77-58.454 65.77-65.753 0-24.351 70.573-105.81 109.76-126.69 23.368-12.451 46.719-26.845 51.892-31.986 31.145-30.955 56.568-32.85 217.2-16.188 73.999 7.6758 155.8 15.078 181.79 16.45 56.92 3.0046 204.14 89.793 204.14 120.34 0 10.221-79.1 3.8518-123.86-9.9731-51.002-15.753-62.229-14.169-43.811 6.1821 14.753 16.303-29.052 62.599-80.172 84.73-58.884 25.494-71.422 29.964-84.023 29.964-56.094 0-176.55 76.782-168.53 107.43 4.4453 16.998-12.581 25.047-27.243 12.878-18.591-15.429-11.524-33.74 35.497-91.981 25.316-31.357 46.028-60.117 46.028-63.912 0-10.605-25.529-8.1799-35.083 3.3323-4.6709 5.6282-24.977 20.698-45.125 33.488-43.722 27.755-45.394 29.365-70.381 67.809-70.517 108.49-56.515-94.748 115.03-182.27 34.54-17.622 48.204-33.79 33.366-39.485-9.8367-3.7744-38.539 6.8115-47.379 17.474-1.947 2.3486-16.287 12.954-31.866 23.566-61.065 41.599-191.69 186.14-146.24 161.81 55.538-29.722-29.161 62.782 63.282 75.182 28.306 3.7964 40.539-4.5806 22.747-15.577-9.3872-5.8015 1.4006-25.504 33.293-60.805 35.455-39.244 50.59-35.642 19.789 4.7097-29.099 38.122-31.238 60.588-7.5435 79.226 30.715 24.16 89.025-1.2996 89.025-38.872 0-24.803 53.082-55.076 121.88-69.507 119.88-25.147 101.77-65.573 136.22-6.792 34.472 58.822 68.118 74.484 127.75 59.468 47.844-12.047 140.92 12.86 143.96 38.523 1.9226 16.251-0.9016 19.637-19.473 23.352-39.471 7.8943-24.748 53.647 25.611 79.583 23.329 12.015 57.254 9.7134 130.56-8.8574 92.849-23.522 141.89-22.434 197.41-38.145 83.218-23.547 411.32-22.747 545.2 1.3289 37.72 6.7837 78.113 10.074 92.056 7.4985 40.954-7.5637 171.51-53.1 201.88-70.413 26.873-15.32 133.69-39.276 174.99-39.248 35.752 0.0262 58.477-50.943 37.701-84.56zm-1285.8-894.41c1.7207-31.259 80.682 60.258 5.6033 171.72-16.552 24.573-35.965 53.746-43.139 64.829-13.664 21.108-32.984 27.155-32.984 10.324 0-5.4053 10.45-25.321 23.221-44.258 49.656-73.626 40.881-85.996 47.299-202.61zm-139.65-63.675c-0.6016-125.31 6.564-135.92 42.903-63.575 54.826 109.16 30.338 231.18-68.102 339.36-35.111 38.584-46.438 19.798-18.967-31.457 20.269-37.819 9.824-46.083 24.095-57.927 15.132-12.558 20.66-63.894 20.071-186.4zm-61.559-350c-3.4709 137.22 1.1235 125.9-54.676 33.831 19.958-1018.3 13.705-1318.5 19.129-1324 5.7139-5.7142 48.659-8.7262 65.521-4.5956 15.912 3.8981 16.072 5.0305 12.327 86.972-13.153 287.8-42.302 1200-42.302 1207.8zm-81.761-508.66c12.274-595.89 2.6465-609.03 16.308-832.05 157.79 0 147.78-12.087 143.13 76.904-10.144 194.32-39.415 1388.9-45.953 1388.9-17.825 0-19.965-23.094-14.106-152.25 8.0354-177.11 14.943-419.24 32.424-929.27 13.326-388.81 17.579-355.98-46.117-355.98-62.416 0-55.627-46.859-61.563 424.88-9.7952 778.37-5.5996 948.66-27.782 865.68-5.8127-21.741-5.7475-30.403 3.6539-486.84zm-25.25 1009.1c-8.438 272.56-8.7566 262.52 9.125 287.59 8.6479 12.123 13.694 24.073 11.212 26.555-30.461 30.461-165.01-44.781-213.53-119.41-41.325-63.565-120.57-274.57-111.75-297.55 15.176-39.549 34.379-6.1348 64.258 111.82 46.128 182.1 104.06 260.59 163.56 221.61 46.38-30.39-38.454-293.15-129.98-402.61-30.238-36.16-35.034-48.552-50.493-130.47-20.694-109.65-21.862-156.18-4.2451-169.07 21.495-15.728 31.206 0.2571 39.281 64.659 20.906 166.73 84.673 230.08 85.101 264.65 0.5352 43.298 72.314 122.88 92.101 102.11 12.79-13.425-5.3047-202.23-24.658-257.3-56.197-159.88-58.329-169.95-35.997-169.95 13.576 0 35.647 40.528 46.335 85.083 31.442 131.06 69.441 67.078 59.683 382.28zm-393.26-896.98c-25.18-54.62-8.4741-95.551-24.863-118.95-18.712-26.715 9.678-53.33-13.746-70.458-11.166-8.1652-11.628-11.971-3.7542-30.98 9.0317-21.804 5.6782-46.105-8.8628-64.225-10.837-13.504-0.604-54.267-11.508-61.006-4.6877-2.8971-6.0137-14.221-3.3367-28.492 3.7041-19.743 1.384-26.343-13.945-39.672-33.146-28.82-5.449-52.199-31.572-104.09-44.73-88.851-106.34-246.74-274.52-310.04-125.77-47.34-356.95-17.728-406.5 52.068-24.087 33.933-72.711 74.488-107.88 111.4-26.364 27.673-79.459 138.3-89.476 186.43-12.453 59.837-24.02 54.222-15.024 85.588 5.0602 17.644 3.5107 27.397-7.2502 45.636-28.388 48.115-2.9089 136.38-29.75 174.3-14.246 20.127-15.656 37.514-4.7041 57.979 6.2 11.585 4.8295 17.408-7.0813 30.086-16.199 17.243-19.515 52.9-7.0813 76.133 6.2321 11.645 4.7621 17.48-7.7654 30.814-11.723 12.478-15.388 24.962-15.18 51.716 0.5182 67.037-27.23 28.816-27.23 94.216 0 25.976-3.1309 35.735-13.191 41.12-17.461 9.3447-31.962 45.586-26.672 66.66 6.8108 27.138-20.152 29.66-31.191 58.511-4.2516 11.112-14.154 16.051-39.017 19.459l9e-4 4e-4c-38.74 5.3092-79.37 30.91-105.91 46.09-3.2799-859.4-5.4642-1082.3 5.0153-1085.2 22.454-6.2577 101.21-11.878 150.77-36.226 66.394-32.616 171.99-57.96 199.88-96.188 12.912-17.7 32.411-11.661 76.355-41.896 42.56-29.282 106.98-51.742 127.33-70.329 23.659-21.612 73.701-43.608 105.05-46.176 16.261-1.3316 47.906-6.5868 70.322-11.677 112.49-25.548 311.82 28.317 436.75 118.02 104.17 74.799 85.676 47.366 159.33 91.35 47.139 28.149 179.7 79.872 340.37 106.51-0.7979 377-0.7905 378.44-3.5413 972.04l-34.967 11.437c-35.523 11.618-109.8 14.858-158 6.8915-25.908-4.2822-26.555-5.1337-26.555-34.968 0-26.334-3.2766-33.078-23.604-48.582-17.556-13.39-23.604-23.477-23.604-39.365 0-12.163-6.6067-28.394-15.343-37.693-27.642-29.424-1.6199-52.13-33.381-72.94-33.562-21.991 3.8811-22.262-25.183-85.303zm-850.79-83.066c19.662 5.5322 20.982 27.955 2.2358 37.988-41.731 22.334-69.709-22.06-34.102-54.112 39.389-35.455 53.029-16.844 28.325 2.1243-11.57 8.8848-11.335 9.8136 3.5406 13.999zm28.679 143.04c-23.358 23.358-62.315-2.095-62.315-40.715 0-36.873 34.364-50.139 59.093-22.813 20.618 22.783 11.659 21.524-27.228 26.805 31.857 13.533 49.262 17.91 30.449 36.722zm-25.21 186.81c18.119 2.5851 25.709 25.868 11.391 34.942-22.084 13.995-55.248-10.266-55.468-40.576-0.2961-40.88 60.198-70.994 77.536-38.597 15.112 28.238 9.6658 36.413-20.995 31.51-39.88-6.377-31.487 10.007-12.464 12.721zm-25.42 112.02c3.821 19.105 2.4536 21.244-13.582 21.244-31.378 0-36.381-40.711-7.7695-63.217 28.729-22.598 68.672-20.512 57.948 3.0267-16.741 36.739-44.89-2.5192-36.596 38.947zm-39.897 87.227c-24.747 43.85-32.885 48.588-41.844 24.368-15.103-40.828 22.89-95.069 51.789-73.937 12.075 8.8296 11.538 11.503-9.9446 49.569zm84.863-311.78c7.7896 2.037 14.162 8.6697 14.162 14.74h5e-4c0 18.364-23.849 26.624-41.393 14.336-33.003-23.116-6.8474-73.615 38.128-73.615 21.7 0 24.508 2.119 24.508 18.492 0 17.297-1.5996 18.191-24.784 13.841-26.026-4.8827-35.284 5.757-10.622 12.206zm-29.742-272.56c-19.177 19.179-48.152 3.2328-48.152-21.566 0-15.864 30.547-47.83 45.706-47.83 13.55 0 15.535 56.308 2.4462 69.396zm-40.434 122.39c-9.0808 31.356-8.2646 57.706 2.2859 73.809 10.135 15.467 10.232 17.652 0.781 17.652-13.935 0-15.782 14.163 3.3772 14.163 16.049 0 17.19 5.2789 6.9563 32.194-8.4114 22.123-0.5833 32.229 13.202 59.862h-23.824c-27.622 0-40.255 13.262-18.142 19.045 11.644 3.0449 13.248 6.0695 7.1301 13.441-4.7944 5.7769-6.0618 20.359-3.2273 37.135 4.1643 24.649 2.9019 28.187-11.728 32.861-13.709 4.38-14.365 5.7804-4.0032 8.5474 14.963 3.9957 14.895 2.9351 1.814 28.016-18.313 35.112-1.3215 45.067-31.491 45.067-29.198 0-32.822 14.162-14.998 14.162 17.411 0 17.415 0.0277 4.0022 25.745-12.398 23.773-13.589 47.617-3.3353 66.777l5e-4 5e-4c26.086 48.743-100.54-50.902-147.95-63.992-56.192-15.516-67.341-92.261-13.402-92.261 3.3993 0 4.0109-14.465 1.3596-32.144-8.6881-57.937 20.64-75.386 58.054-34.54 12.782 13.955 26.552 23.327 30.598 20.826 11.703-7.2329 9.0945-12.981-20.968-46.199-44.933-49.65-34.936-125.45 10.316-78.214 21.918 22.877 46.335 28.643 46.335 10.942 0-5.8422-2.8085-10.622-6.2411-10.622-21.529 0-50.987-46.77-48.958-77.731 2.6447-40.363 17.722-44.864 49.746-14.85 23.522 22.046 40.859 28.019 40.859 14.078 0-4.2301-17.526-24.264-38.947-44.521-58.744-55.55-50.837-130.53 8.9557-84.924 42.534 32.443 106.57 27.956 101.44 45.675zm-14.8-74.949c-3.8945 2.407-7.0813 12.155-7.0813 21.662 0 31.283-84.655-6.1542-106.59-47.138-19.015-35.53 9.7441-64.506 31.328-31.565 21.425 32.698 114.16 37.379 82.342 57.041zm63.731-835c0-11.9 3.8843-18.294 11.115-18.294 7.3806 0 10.354 5.1657 8.8516 15.378-3.3357 22.67-19.966 25.099-19.966 2.9152zm184.11-81.607c0-18.517 14.163-28.348 14.163-4.3765 0 23.54-14.163 22.848-14.163 4.3765zm429.99 44.441c-4.3418 13.041-25.949 14.014-30.795 1.3874-12.583-32.797 34.091-11.286 30.795-1.3874zm295.51 167.58c17.729 0 46.361 16.009 46.361 25.921 0 11.116-26.441 12.214-44.258 1.8369-14.992-8.7323-16.434-27.758-2.1035-27.758zm272.62 105.86c-5.656-3.5782-22.467-6.5574-37.358-6.6141-22.002-0.0881-26.597-2.4298-24.532-12.501 3.7913-18.489 71.272-11.16 78.841 8.5637 5.1459 13.41-3.7145 18.925-16.951 10.551zm-20.796-59.832c0.9829-3.8946 3.7502-35.76 6.1494-70.813 7.4932-109.46 35.067-82.22 30.463 30.095-2.3135 56.446-2.9744 58.42-19.558 58.42-16.92 1e-4 -20.566-3.7842-17.054-17.703zm-45.461-5.3109c6.5032-20.035 2.7305-110.63 2.1599-132.77h36.466c-1.2664 23.146-5.6216 121.57-11.428 136.7-7.4836 19.502-33.58 15.73-27.198-3.9305zm-95.913 16.516c-3.3069-5.3499-11.114-7.7706-17.349-5.3779-15.185 5.827-32.58-1.47-32.58-13.666 0-13.229 1.4285-13.043 72.515 9.4761 142.31 45.08-0.1746 45.831-22.586 9.5682zm71.176-156.37c13.075 0 13.809 4.4323 11.915 72.008v-4e-4c-2.0125 71.806-8.3887 88.264-25.983 67.064-21.563-25.981-10.122-139.07 14.068-139.07zm-57.38-10.618c18.362-11.348 29.97 13.637 21.299 45.841-11.706 43.473 1.3308 73.77 1.0869 90.19-0.1079 7.6401-13.421 10.851-17.389 4.1937-8.8218-14.799-13.112-135.21-4.9961-140.22zm-21.176 23.011c0.158 86.703 18.697 107.99-5.6506 107.99-17.418 0-37.44-18.102-33.514-30.3 1.53-4.7556 6.4622-31.749 10.961-59.986 9.8457-61.801 28.103-73.26 28.204-17.703zm-77.468 17.363c4.1118-18.313 5.5398-43.652 3.1736-56.31-4.8787-26.092 1.7966-28.792 24.912-10.075 25.193 20.401-4.1763 123.37-4.8926 123.37-11.546 42.19-33.404-11.517-23.193-56.99zm-81.202-131.18c9.5181 3.6522 10.446 12.782 6.1902 60.864-6.1377 69.34 7.1738 70.908 14.584 1.718 4.7053-43.941 5.5066-45.454 20.029-37.812 27.199 14.311 31.004 35.418 21.161 117.37-5.5479 46.186-20.52 47.073-67.021 3.9711-25.784-23.899-21.205-156.19 5.0576-146.11zm-26.015 154.1c16.035 13.397 35.456 26.358 43.158 28.802 11.69 3.7106 15.389 18.13 14.003 18.13 0 7.5269-0.7966 13.561-1.7703 13.409-9.0793-1.4172-61.961-38.057-61.961-42.93 0-3.4996-7.1699-6.4956-15.933-6.6594-31.142-0.58-118.22-59.562-118.46-80.234-0.1157-10.165-2.3296-11.451-9.4851-5.5128-13.049 10.829-59.226-20.795-50.643-34.682 5.0317-8.1414 78.583 31.72 108.65 58.882 44.802 40.475 47.123 12.932 92.444 50.796zm-5.1511-126.37c-3.0159 69.536-5.564 87.848-23.984 87.848-10.784 0-13.161-3.0842-9.551-12.392 2.6438-6.8155 8.3538-38.75 12.689-70.966 9.7302-72.306 23.92-75.362 20.846-4.4902zm-303.74-180.71c16.229-46.568 28.332-36.225 22.743 19.435-2.7622 27.505-2.7266 53.724 0.0798 58.264 9.2544 14.974 17.272-8.8572 17.386-51.677 0.1106-41.583 4.2463-46.58 28.021-33.857 11.87 6.3526 12.106 9.8906 3.1858 47.798-22.653 96.266 1.0403 97.26 8.0864 46.249 14.313-103.62 35.818-113.09 28.273-12.454-4.2351 56.488-3.437 68.422 4.4021 65.827 6.6914-2.2155 10.2-19.66 11.651-57.934 2.99-78.862 32-80.749 35.429-2.305 2.1763 49.784 15.514 61.269 15.713 13.529 0.2285-55.053 30.795-65.62 19.587 28.228-3.2986 27.615-4.1257 52.081-1.8391 54.367 8.9563 8.9566 17.338-18.626 17.442-57.393 0.0847-31.796 2.4844-40.717 10.953-40.717 17.29 0 20.371 19.779 10.677 68.545-8.8049 44.298-5.7405 65.053 6.6455 45.011 13.414-21.707 8.0774-94.263 25.584-87.546 12.208 4.6851 12.433 60.422 0.4497 111.5v4e-4c-9.4541 40.299-17.974 45.939-37.014 24.503-19.278-21.705-66.271-35.027-101.71-61.553-15.39-11.52-38.808-20.172-63.731-23.543-66.537-9.0019-91.234-70.44-62.016-154.28zm-62.31 100.94c3.0466-7.1262 7.0513-42.432 8.8999-78.458 2.7974-54.523 5.2959-65.484 14.908-65.393 52.386 0.4921 5.4944 54.641 9.7954 123.91 1.635 26.341 0.3872 28.38-18.696 30.559-17.484 1.9964-19.645 0.4569-14.908-10.622zm96.612 68.478c3.3083 0 6.0154 3.1866 6.0154 7.0812 0 9.3668-12.958 8.1039-38.947-3.7961-45.297-20.743-67.272 2.7192-67.272-28.07 0-50.9 87.211 24.784 100.2 24.784zm-102.68-219.52c5.7327 0-1.4609 127.2-8.1101 143.4-6.2456 15.215-13.266 15.687-24.896 1.674-13.045-15.718 16.385-145.07 33.006-145.07zm-109.17 50.041c9.7476-85.509 31.745-70.958 24.195 16.005-3.9836 45.889-3.3933 49.468 6.1147 37.05 13.593-17.753 10.525-75.515 10.525-110.18 44.09 0 50.293-5.2786 32.289 50.078-11.191 34.408-12.54 61.736-13.267 61.736-3.6128 35.779-1.5559 33.921-34.524 31.18-30.733-2.5551-33.689-12.575-25.334-85.872zm-19.077 38.475h-5e-4c-1.0693 86.984-30.293 63.915-30.916-24.405l-0.5032-71.192c65.082-1e-4 32.719-9.9773 31.42 95.597zm3.6331 76.124 0.3713 15.933 10.438-14.915c13.152-18.793 45.469-15.154 45.469 5.1186 0 15.682 12.871 17.863 18.521 3.1382 4.8423-12.619 38.129 0.0026 38.129 14.458 0 15.139-12.412 18.002-42.697 9.847-41.35-11.135-134.16-8.9228-160.89-0.8247-24.144 7.3155-28.426 1.9795-18.716-23.325 5.1086-13.313 31.751-14.806 44.086-2.4713 6.9185 6.9183 9.5872 5.4492 12.864-7.0813 6.1017-23.332 51.878-23.226 52.423 0.1224zm-145.54-145.56c55.656-19.218 64.299-25.425 49.567 16.332-23.307 66.059-9.4395 120.47 12.954 20.834 16.197-72.061 28.724-71.71 31.65 0.8865 3.0947 76.767 0.7375 81.948-41.397 90.984 0.7102 0-36.67 7.6712-42.365 7.6712-20.178 0-11.719-104.28-10.408-136.71zm-30.096 193.54c-29.876 10.6-40.118 21.065-53.507 21.065-5.1926 0-16.368 7.9664-24.834 17.703-14.791 17.012-36.73 24.064-36.73 11.807 0-18.973 94.702-71.998 128.59-71.998 13.896 0 4.3859 15.07-13.518 21.422zm-37.707-162.76c15.308-8.1929 15.344-8.0364 10.51 45.316-6.8196 75.256 8.126 68.553 14.378-3.1128 7.6296-87.467 17.812-73.788 27.573 37.044 4.0547 46.042-3.7412 45.254-59.011 61.105v-33.923c0-81.737-18.064-93.256 6.5505-106.43zm-115.51 69.861c24.101-20.001 1.6018 83.925 23.335 91.278 19.425 6.5725-6.7917-101.58 9.4512-117.83 39.352-39.353-0.8018 89.416 20.64 82.348 6.2168-2.0495 10.726-19.884 13.042-51.591 4.5503-62.276 17.679-67.914 23.713-10.182 7.5303 72.044-9.1489 106.18-58.593 119.91-34.751 9.6533-40.778 8.9864-46.188-5.113-7.2497-18.893 3.5899-99.688 14.6-108.83zm-36.572 21.911c9.8486 0 10.522 100.34 0.8191 122.15-11.601 26.079-18.16 10.302-18.16-43.679 0-60.963 3.8694-78.473 17.341-78.473zm-8.6873 157.79c28.333-27.666 42.914-27.54 24.728 0.2148-13.93 21.261-97.113 65.176-97.113 51.27 0-5.2889 10.326-13.216 22.946-17.615 12.62-4.3994 34.868-19.64 49.439-33.869zm-56.452-113.9c8.2217-4.0056 1.3154 101.04 12.392 94.189 10.474-6.4731 3.6887-109.76 14.162-109.76 9.3374 0 7.0813 111.34 7.0813 133.88-69.575 30.777-70.597 32.504-71.138 23.677-7.6015-124.02-8.8165-119.42 37.502-141.99zm-59.764 44.456c7.6021 7.6021 5.6533 112.9-2.1964 118.67-15.171 11.146-17.703 3.3721-17.703-54.353-1e-4 -54.991 6.9052-77.308 19.9-64.314zm-4.4808 135.86c38.248-15.024 43.559-8.7729 14.56 17.138-0.7084 0-44.142 40.044-44.142 7.5701 0-8.7868 9.7217-16.907 29.581-24.708zm-43.678-119.56c13.5-4.7538 17.782 107.88 4.4302 116.53-24.539 15.886-26.668 12.202-28.678-49.617-1.648-50.681 1.3056-58.83 24.248-66.909zm-5.8369 169.64c-3.0548 4.8101-15.753 10.785-28.217 13.277-30.852 6.1706-30.943-13.653-0.1482-32.381 29.386-17.871 45.12-7.2741 28.365 19.104zm-100.63-124.16c9.5021-8.0809 11.062-3.5856 12.903 37.177 1.6086 35.622 4.5624 46.369 12.744 46.369 22.456 0-10.466-70.632 13.222-94.321 19.796-19.796 23.785-14.046 26.238 37.828 2.9264 61.885 3.2593 61.017-29.885 77.926-15.064 7.6855-30.451 13.973-34.194 13.973-12.383 1e-4 -13.322-108.5-1.0286-118.95zm-12.205 140.97c43.377-16.227 47.798-16.394 47.798-1.8101 0 9.8837-6.3284 15.467-21.244 18.743-11.684 2.5665-21.244 7.5995-21.244 11.185s-4.7797 6.5185-10.622 6.5185c-16.911 0-12.63-27.924 5.3109-34.636zm-39.759-69.326c7.2174-90.805 31.426-89.991 28.21 0.9482-1.5991 45.202-3.2186 50.117-17.188 52.161-15.031 2.1991-15.311 0.8502-11.022-53.109zm8.453 81.909c6.5851 45.224-27.115 42.068-27.115 22.559 1e-4 -22.841 24.148-42.932 27.115-22.559zm-49.608-73.527c2.0642-54.265 3.6582-60.207 16.148-60.207 13.135 0 14.517 94.178 1.6891 115.07-13.168 21.446-19.948 0.594-17.838-54.863zm5.192 74.337c20.128 0 2.8903 29.499 2.8903 28.79-7.0109 13.1-35.157 19.658-35.157 8.1916-1e-4 -11.294 22.413-36.982 32.267-36.982zm-35.05-123.34c10.182-26.534 16.945-6.9801 16.945 48.99 0 48.782-2.0132 60.191-10.622 60.191-11.066 0-15.938-84.125-6.3236-109.18zm-29.954-4.1197c20.129 0-3.7117 114.8 20.345 128.3 11.367 6.3768 11.499 8.6783 1.5884 27.843h4e-4c-23.396 45.243-31.684 27.554-31.684-67.624-1e-4 -70.441 1.9907-88.516 9.7497-88.516zm-41.652 1.2992c8.5936 1.9108 10.65 96.958 13.943 644.6 3.8341 637.6 3.7576 642.41-10.333 649.95-14.145 7.5697-14.196 5.7692-14.359-497.19-0.2468-762.2-16.938-803.52 10.749-797.36zm-197.88 271.69c-11.805-372.85-22.336-329.64 80.333-329.64h83.396c8.5328 1248.9 11.117 1421-0.5109 1442.9-10.162 19.208-14.938 16.397-18.986-12.998 0-378.87 3.9717-1391.6-7.3661-1398.6-13.278-8.2067-104.04-7.14-112.51 1.3221-17.984 17.966 39.98 1528.3 28.58 1528.3-29.147 76.663-16.914-93.744-52.931-1231.3zm129.64 652.24c-0.7108 0.7108 0.1069-22.061-2.3936 483.37-7.4971 31.852-34.904 71.379-53.158 71.379-6.5651 0-3.3992-246.35-28.346-1079.9-13.358-446.31-16.141-414.25 35.971-414.25 55.59-1e-4 34.451-75.646 47.927 939.4zm-261.01 1272.3c0-38.866 14.181-11.666 57.187-56.038 26.001-26.826 54.59-31.824 73.555-12.859 16.37 16.37 2.3728 29.86-33.728 32.506-28.255 2.0703-31.592 5.0627-89.735 80.474-73.092 94.801-122.32 145.2-161.25 165.05-41.333 21.088-22.326 18.372-67.32 50.965-49.743 24.872-154.02 30.705-154.02 14.453 0-9.9065 19.349-14.92 57.581-14.92 43.54 0 63.705-10.547 108.83-56.924 19.474-20.015 44.966-41.338 56.65-47.384 61.538-31.848 152.25-124.39 152.25-155.32zm-481.52 200.77c65.933-44.072 94.952-78.61 105.5-125.57 9.3624-41.67 56.005-84.654 91.859-84.654 7.7992 0 35.125-14.34 60.725-31.866 51.653-35.363 55.048-36.429 67.65-21.244 11.588 13.963-2.2345 31.866-24.604 31.866-21.393 0-50.191 27.227-85.155 46.535-54.778 30.249-71.883 63.582-49.87 97.178 16.986 25.924 2.0385 29.207-63.43 62.722-42.873 21.947-44.267 33.499-78.834 50.956-18.544 9.3645-28.668 29.153-26.689 29.153-4.0679 16.208-7.9301 17.95-39.777 17.95-54.001 1e-4 -45.922-13.842 42.622-73.028zm-116.84 97.813c720.59 4.5442 777.32 3.1934 742.78 14.787-59.38 19.928-264.43 112.28-331.03 144.54-371.54-5.1365-712.93-5.8726-726.86-11.096-15.435-5.7889 188.83-87.132 315.12-148.23zm-49.923 2.4851c-10.954 9.8125-54.499 20.53-251.48 111.43-60.148 27.756-73.213 31.2-116.84 30.798-81.575-0.752-33.746-3.4741 278.63-138.22 24.905-10.743 101.01-14.141 89.692-4.0054zm-410.14-147.29c-9.9368-16.078 142.94-25.09 190.97-11.259l21.244 6.1177-21.244 5.0945v-0.0027c-32.1 7.7007-186.22 7.7383-190.97 0.0493zm4.1553 20.468c41.743 9.6235 129.3 9.3335 178.72-0.593 50.788-10.2 48.708-13.844 39.377 68.99-13.162 116.84-2.2104 73.97-167.92 151.84h-4e-4c-64.967 30.53-60.543 36.616-73.562-101.2-13.332-141.13-15.893-128.08 23.377-119.03zm255.51 120.8c67.646 0-29.741 32.565-29.741 11.185-1e-4 -8.4163 7.3604-11.185 29.741-11.185zm-146.58-322.2c147.39 0 88.516 19.052 88.516 17.972-25.997 7.9314-210.86 8.0073-215.76 0.0894-6.73-10.889 43.801-18.061 127.24-18.061zm-153.32 95.597c-2.3296-56.943-1.6981-60.058 11.7-57.736 45.163 7.8281 187.28 8.6907 224.52 1.3625 51.743-10.18 48.086-14.468 43.164 50.619-5.5037 72.768-3.8838 71.346-66.235 58.13-54.8-11.616-99.869-11.245-168.01 6.6484-44.827 11.773-42.101 15.336-45.143-59.024zm1280.6 323.49c-45.018 86.736-43.712 209.22 3.0436 285.48 14.714 24 15.37 24.275 21.075 8.8516 5.645-15.259 32.954-22.356 43.903-11.408 2.4813 2.4812-41.506 31.957-97.75 65.502-222.9 132.94-353.53 222.03-372.03 203.53-2.0387-2.0388-209.99-4.2522-462.11-4.9189-520.37-1.3762-477.64 3.8311-510.41-62.196-56.585-114.01-42.935-333.41 22.301-358.44 18.255-7.0051 18.386 1.3069 0.8584 54.498-35.032 106.31-12.826 318.63 36.514 349.13 14.703 9.0872 16.23-4.1543 3.5078-30.413-39.265-81.04-53.938-256.61-21.446-256.61 13.433 0 13.659-13.39 0.3125-18.512-22.943-8.8044-2.209-23.976 32.766-23.976 42.012 0 44.827-16.401 3.4157-19.901-61.084-5.1619-30.047-24.074 35.251-21.48 44.461 1.7668 62.098 0.0073 64.321-6.4175 2.2859-6.6038-11.472-8.8516-54.177-8.8516-48.528 0-57.24-1.7825-57.24-11.712 0-10.549 9.6749-11.26 97.367-7.1599 149.77 7.0024 772.63 11.529 777.88 20.025 2.0154 3.261-14.05 5.929-35.701 5.929-47.98 0-52.6 12.537-5.7289 15.545 43.776 2.8088 43.459 15.693-0.4547 18.498-39.278 2.5081-42.928 17.856-4.4228 18.598 27.636 0.5325 36.897 13.398 12.239 17.002-27.52 4.0227-31.309 14.793-6.9193 19.671 26.92 5.3845 29.996 22.119 4.6484 25.288-21.409 2.6768-25.647 15.336-6.3577 18.993 34.536 6.5474 32.573 38.157-2.183 35.163-20.661-1.78-26.986 0.4304-28.844 10.079-4.3229 22.445 33.067 2.853 55.268 22.944 12.719 11.51 7.9828 13.131 118.65-40.607 42.269-20.525 55.7-33.709 34.341-33.709-5.4543 0-37.453 12.661-71.107 28.136-68.438 31.468-69.952 30.903-66.336-24.77 1.3654-21.022 6.2057-35.895 12.816-39.378 22.622-11.919 178.58-76.329 174.79-87.112-4.2053-11.957-21.066-6.5605-98.557 31.542-39.073 19.212-73.804 34.932-77.18 34.932-11.409 0-6.2333-21.653 6.2549-26.167 54.19-19.585 88.515-38.627 81.777-45.365-5.2427-5.2427-18.505-1.8818-44.444 11.262-41.718 21.14-45.99 20.425-35.936-6.0198 5.0564-13.299 12.195-18.685 24.764-18.685 18.437 0 136.57-50.634 304.2-130.38 111.31-52.954 111.22-52.948 87.062-6.4088zm35.776-68.789c-50.129 20.62-309.69 134.69-412.35 186.26-659.16-10.345-669.43-9.5156-983.75-10.636l-19.005 21.27c-82.692 92.549-62.447 369.74 31.174 426.83 29.314 17.874 989.08 21.963 1009.8 4.303 14.967-12.733 201.08-121.71 333.38-202.76 125.76-77.043 171.86-84.938 58.364-9.9966-406.28 268.26-423.09 279.04-434.26 269.25-6.1351-5.3787-577.74-5.1238-980.16-20.592l-29.336-31.065c-130.78-138.5-100.49-435.75 49.296-483.76 32.192-10.318 284.56-3.7861 975.08 9.3032 231.26-108.11 215.5-97.317 333.79-153.62 99.773-47.49 93.662-15.354 67.952-4.7784zm28.229-51.524c-11.154 11.154-132.53 21.823-141.53 12.44-10.995-11.468-4.4103-17.318 24.74-21.98 34.21-5.4705 69.087-35.262 69.087-59.014 0-42.534 35.406-52.024 35.406-33.043 0 5.2385 6.6884 15.577 14.863 22.975 16.946 15.336 15.469 60.585-2.567 78.621zm-45.669-218.06c0.829 9.3425-2.4567 18.364-7.3013 20.049-22.709 7.896-39.085-108.95-20.347-145.19 13.748-26.587 47.348-59.284 57.427-55.886 15.747 5.3103-5.2406 68.131-28.108 84.134-11.777 8.242-0.6232 96.892-1.6703 96.892zm84.794-355.92 1.689-22.215c-53.492 3.4734-66.263 0.9812-95.957 27.808-21.504 19.428-34.69 24.58-80.247 31.356-0.7095 0-54.414 8.1082-63.523 8.1082-15.589 0-47.285-39.127-55.036-67.937-18.043-67.07-94.17-115.97-34.515-145.74 47.484-23.696 73.058-34.17 83.424-34.17 31.864 0 101.86-46.11 140.61-92.623 53.882-64.685 52.599-58.25 95.581-41.908l-14.682 20.619c-19.519 27.412-79.717 81.112-127.9 114.09-46.356 31.73-106.22 97.971-106.22 117.54 0 25.842 25.628 59.479 42.495 55.774 13.712-3.0115 22.55 0.4868 35.172 13.922 56.238 59.863 124.68-50.149 66.539-35.556-38.634 9.697 2.0201-85.301 46.749-109.24 24.228-12.967 20.631-11.861 25.023 88.252 33.12 21.909 66.194 47.472 90.286 44.188 23.457-3.196 23.355-4.072 3.5405 30.546-25.486 44.526-56.502 42.879-53.028-2.8155zm50.128 32.524c24.675-39.325 137.36-270.72 163.07-270.72 74.497 0 43.89 35.406 26.2 35.406-33.735 0-91.29 120.39-143.14 191.68-37.226 51.183-39.596 77.407-52.939 77.407-13.098-1e-4 -12.49-3.0169 6.811-33.776zm171.09 377.22c-39.622 169.53-57.962 299.56-110.11 381.79-17.034 26.859-24.28 32.462-41.987 32.462-27.775 0-27.041-10.794 2.6991-39.677 29.173-28.333 45.058-71.731 94.339-257.74 41.187-155.45 31.041-259.49 62.635-233.27 10.621 8.8146 7.9383 50.051-7.5735 116.43zm115.76 139.85c-11.762-29.338-24.698-297.48-14.828-307.35 25.569-25.569 30.295-3.5498 29.451 137.22-0.507 84.565 2.1489 144.08 6.9801 156.43 4.2888 10.964 7.7983 22.914 7.7983 26.555 0 14.915-22.151 5.2317-29.401-12.854zm185.19 15.706c0 9.7444-49.886 2.2405-64.666-9.7278l-16.666-13.496c0.7656-203.44-0.3616-425.24 9.6046-435.21 33.081-33.081 25.688 120.02 42.493 183.65 4.2842 16.218 7.176 71.983 6.427 123.92-1.0974 76.113 0.9832 99.542 10.723 120.76 5.0899 11.087 13.024 30.096 12.084 30.096zm-50.477-817.41c-38.273 10.306-29.314 23.476-76.286 85.537-31.697 41.879-78.593 124.35-78.593 138.21 0 22.962 25.295 8.3936 37.667-21.694 10.357-25.186 62.446-118.45 73.106-130.9 10.211-11.92 7.5657 11.144-4.903 42.747-35.558 90.128-58.325 170.96-66.918 237.6-11.066 85.807-33.006 71.354-42.169-27.777-3.7157-40.2-7.7524-54.88-15.09-54.88-12.456 0-12.982 27.165-1.9312 99.775 10.139 66.619 6.7178 80.651-29.771 122.1-0.7083 0-80.711 97.132-34.036-73.173 3.736-13.631 9.4982-69.396 12.804-123.92 11.894-196.13 27.674-250.87 95.995-333.05 38.76-46.621 90.99-126.43 101.8-155.55 4.3005-11.59 87.312-147.52 99.461-162.87 13.504-17.059 21.074-30.455 52.746-93.342 21.955-43.593 54.062-214.98 54.062-288.59 0-18.193-12.258-12.547-17.422 8.0243-5.5046 21.931-17.684 10.471-17.876-16.82-0.1787-25.398-40.167-36.597-32.572-56.389 4.0645-10.592 6.0674-10.227 18.782 3.4214 29.465 31.627 36.76 15.007 11.228-25.581-26.456-42.056-35.272-78.742-34.478-143.47 0.7834-63.899-6.5891-90.201-19.789-70.597-3.9336 5.8418-5.5579 17.427-3.6094 25.744 13.256 56.583-102.55 14.941-29.956-43.126l23.014-18.408-19.473-14.562c-29.99-22.425-11.289-70.031 27.51-70.031 11.17 0 13.079-18.299 2.5857-24.784-14.448-8.929-7.5168-44.657 11.577-59.676 23.396-18.404 41.51-19.604 34.472-2.2846-7.0928 17.455-20.233 86.764-31.26 126.7-7.4338 26.923 3.1421 55.461 11.766 31.747 5.5298-15.205 32.516-33.959 22.756-39.992-10.492-6.4844-8.0884-36.003 3.7302-45.812 6.5164-5.4104 8.9885-14.994 6.4597-25.07-3.0603-12.193-0.0393-18.481 11.967-24.906 15.038-8.0481 15.267-9.1753 3.6023-17.705-10.118-7.3985-10.961-11.905-4.4893-23.998 4.3826-8.189 5.8518-18.314 3.2649-22.499-2.5867-4.1859-0.605-15.268 4.4043-24.628 17.694-33.063-11.983-36.176-37.79 13.553-9.1675 17.665-18.432 26.093-28.762 26.167-29.489 0.21-36.482 10.999-36.482 56.284 0 23.51-2.5349 42.746-5.6331 42.746-28.529 0-51.942 66.577-29.858 84.904 9.2378 7.6669 8.8013 11.182-3.5408 28.515-17.667 24.811-18.733 67.384-1.9214 76.792 10.098 5.6511 10.773 9.6057 3.9854 23.366-14.67 29.739-17.499 48.883-8.7781 59.391 17.129 20.639-20.254 10.966-46.426-12.013-29.518-25.917-45.913-54.495-45.913-80.032 0-56.338 53.283 51.443 73.979 17.956 2.2017-3.5623-7.2473-13.43-20.997-21.928-32.49-20.08-48.526-50.98-42.666-82.216 5.0948-27.157 17.02-30.417 35.712-9.7618 11.824 13.065 38.947 19.888 38.947 9.7977 0-2.4009-12.746-16.369-28.325-31.042-32.783-30.876-33.969-39.945-14.92-114.17 40.999-159.77 104.98-201.2 205.4-306.07 64.326-67.18 282.41-79.502 400.64-22.638 76.015 36.562 199.54 175.81 212.87 239.96 9.8616 47.458 31.596 46.979 31.596 104.41 0 25.062 3.1211 36.421 10.819 39.375 20.409 7.8315 25.92 28.937 13.719 52.532-10.801 20.887-10.655 22.018 3.3252 25.674 19.544 5.1113 18.435 22.906-3.4355 55.135-24.734 36.448-20.732 56.845 5.5859 28.463 40.668-43.859 41.437 19.044 1.8701 61.715-25.632 27.643-25.102 62.812 9.5334 22.979 15.643-17.991 29.396-17.957 29.396 0.0726 0 5.2626-12.746 25.693-28.325 45.402-26.992 34.148-35.867 57.494-21.857 57.494 3.5581 0 15.768-12.645 27.134-28.1 15.761-21.431 22.628-26.137 28.938-19.827 16.629 16.629 2.1973 53.635-38.72 99.287-24.825 27.697-28.43 37.012-17.045 44.047 10.444 6.4543 71.12-88.549 71.12-64.406 0 8.0231-24.745 60.163-36.216 76.311-25.228 35.513-13.707 70.218 24.782-0.7339 16.865-31.09 21.588-35.597 27.058-25.823 25.123 44.893-83.742 174.77-39.749 165.84 6.2048-1.2594 19.289-21.409 29.077-44.777 21.244-50.718 18.634-47.403 32.982-41.897 34.392 13.197-29.407 149.2-123.63 263.55-9.3701 11.371-2.3511 32.469 8.5591 25.726 11.686-7.2227 93.129-134.71 116.18-181.88 22.185-45.382 28.355-48.877 40.24-22.792 14.282 31.345-19.584 40.941-70.523 141.45-36.838 72.685-115.57 138.04-88.067 138.04 7.77 0 79.812-89.097 100.2-123.92 26.464-45.204 66.066-102.7 70.568-102.45 34.077 1.8563 54.789 67.379 23.76 75.167-67.756 17.006-184.28 161.61-217.57 270.01-7.7832 25.344-35.129 39.41-68.035 34.996-55.908-7.4988-75.656-57.105-35.936-90.265 22.282-18.601 22.318-18.742 8.1284-31.584-15.556-14.077-18.424-39.247-6.9226-60.738 10.044-18.767 53.088-18.957 63.084-0.2783 8.0156 14.978-7.1611 33.986-20.535 25.72-12.623-7.8008-23.282 3.3566-13.95 14.601 20.955 25.25 56.127 6.4689 56.127-29.97 0-27.716-20.918-45.013-54.436-45.013-35.928 0-49-33.946-24.653-64.014 9.8284-12.138 17.354-14.914 31.084-11.468 32.467 8.1493 33.4 51.431 0.9749 45.232-17.203-3.2882-23.774 10.881-9.2188 19.877 29.388 18.162 64.258-24.006 49.438-59.786-7.7742-18.768-6.9707-23.788 6.9338-43.315 16.854-23.669 16.227-67.615-1.1177-78.335-6.0781-3.7567-1.9795-12.816 14.067-31.092 22.342-25.446 23.901-39.106 4.4614-39.106-16.268 0-26.583-26.657-18.873-48.773 4.7271-13.56 3.9739-27.602-2.4897-46.403-7.9485-23.12-7.6721-30.307 1.9382-50.46 10.308-21.616 10.231-26.055-0.9629-55.366-11.529-30.188-11.52-32.856 0.1577-50.679 10.007-15.273 11.006-23.766 5.3044-45.125-11.851-44.394 11.126-49.226-1.9685-86.789-12.299-35.278-1.6563-63.841-21.877-94.39-9.938-15.01-12.842-27.815-9.9026-43.642 9.1636-49.352-23.282-77.425-19.398-14.277 3.2385 52.665-8.6042 38.451-21.086-25.309-13.914-71.071-30.18-111.51-44.856-111.51-15.059 0-13.765 15.718 3.7344 45.378 8.7578 14.844 12.933 30.566 10.312 38.826-2.9299 9.2315-0.1997 16.236 8.1492 20.908 11.999 6.7152 11.99 7.6509-0.2065 21.128-12.341 13.636-12.277 14.256 1.9177 18.761 17.319 5.4967 20.237 35.463 4.0576 41.672-15.178 5.8243-13.118 16.848 4.9546 26.521 13.321 7.1288 17.045 6.126 25.708-6.9227 9.5586-14.396 10.667-14.553 19.604-2.776 16.461 21.691 11.541 42.393-14.861 62.532-22.508 17.168-24.784 22.16-24.784 54.363 0 169.77-60.877 305.94-159.43 356.63-23.312 11.99-54.78 30.267-69.928 40.615-103.37 70.614-161.57-45.672-222.54-71.052-29.84-12.423-36.451-20.28-36.603-43.496-0.0662-10.074-3.5635-15.347-8.96-13.509-12.063 4.1077-11.501 228.42 0.6292 251.01 8.5464 15.917 46.285 30.294 79.707 30.366 46.467 0.1001 42.044 58.789 53.012 102.49 3.5349 14.083 0.9487 22.302-10.321 32.801-8.2708 7.7053-15.038 20.259-15.038 27.897 0 17.246-14.741 22.934-9.4502-9.6654 6.2727-38.654-21.691-55.437-110.11-66.086-46.828-5.6399-49.491 12.024-3.009 19.959 65.176 11.126 87.628 20.403 94.757 39.152 9.3401 24.566 3.1816 28.679-21.293 14.222-34.221-20.215-145.54-13.961-112.71 6.3322 10.523 6.5028 82.248 2.4897 99.53 1.8633l31.144 32.504c44.646 46.595 42.084 65.196-3.4507 25.061-42.512-37.47-118.64-22.22-132.79 26.601-19.442 67.072-99.816 157.93-152.18 172.03zm245.58 222.82c26.65 158.9 26.708 243.8 37.16 279.71 8.9285 30.678 14.168 128.9 16.437 162.87h-21.092v-5e-4c-40.341 0-46.632 20.388-39.659-16.781 5.5081-29.36-7.3193-151.26-22.187-210.84-5.792-23.213-9.9731-75.464-9.9731-124.64 0-134.98-13.637 8.4558-17.703-444.38-22.52 3.1313-31.866 3.927-31.866 0.8497 0-12.744 31.544-53.152 46.982-60.187 18.346-8.3584 33.456-4.7072 20.04 4.8425-13.577 9.6633 1.1634 285.15 21.86 408.56zm87.658-417.04c-24.996-42.365-4.0188-18.246 16.919-78.722 12.374-35.743 24.088-38.886 29.878-8.0187 5.7224 30.503 1.6934 50.818-30.041 151.49-28.889 91.643-32.342 93.665-67.861 39.731-40.156-60.976-26.285-93.314 30.312-70.669 36.456 14.587 43.035 3.8912 20.792-33.807zm121.18 905.64c-0.2258 7.2393-99.124 11.324-138.39 5.7163-99.245-14.175-98.039-33.307 1.7705-28.085 89.243 4.6694 136.93 12.477 136.62 22.368zm-36.718-899.21c14.987-41.444 0.4211-88.628 18.708-88.628 11.978 0 13.722 33.386 6.0068 115.07-9.5583 101.2-40.609 17.513-24.715-26.442zm-151.62 5.4077c-6.7883 17.689-24.404 21.051-24.404 4.6575 0-7.7897 4.9172-16.05 10.927-18.356 24.565-9.4271 12.749 13.698 13.477 13.698zm-38.314 894.63 37.05 13.326c34.721 12.488 137.46 17.441 195.94 9.4446 16.562-2.2649 37.42 44.453 25.272 56.602-13.285 13.285-177.9 6.6582-256.63-10.331-65.001-14.027-56.622-17.607-1.6342-69.041zm248.81-1018.6c50.178-99.984 79.425-144.19-77.416-119.8-66.332 10.312-107.25-8.4397-75.643-34.668 12.956-10.752 31.456-52.467 31.456-70.926 0-11.635 4.8362-12.48 49.843-8.7072 46.374 3.8877 78.017-2.9961 91.782-19.967 1.9475-2.4009 22.66-14.95 46.028-27.886s51.52-30.915 62.56-39.951c54.248-44.404 41.907 40.731-12.876 88.832-27.607 24.24-36.184 27.049-41.044 13.443-10.035-28.1-11.39 8.3766-1.999 53.841 6.0837 29.454 11.062 55.279 11.062 57.391 0 2.1113 5.033 3.8389 11.185 3.8389 8.4609 0 10.199-4.7413 7.1382-19.474-3.3628-16.188 1.4255-25.189 28.38-53.351 72.141-75.371 80.288-69.766 71.903 49.47-13.878 197.35-16.572 208.32-71.351 290.67 0 2.1973-54.336 82.444-54.336 20.999 0-59.131-53.884-145.92-76.672-183.75zm-197.73-192.52c58.211-73.972 80.834-56.149 30.313 23.881-14.562 23.069-22.231 28.67-39.253 28.67-28 0-26.782-7.1569 8.9402-52.551zm-61.585-94.503c2.7466-24.278 7.9785-44.141 11.626-44.141 8.1433 0 36.261 14.48 41.107 21.17 4.4871 6.1927 54.874 41.755 65.852 49.64-15.01 5.2325-40.993 11.881-51.871 32.207v5e-4c-24.589 45.944-73.673 2.6262-66.715-58.876zm497.6-229.85c-14.711-4.9034 1.4175-19.646 21.493-19.646 39.856 0 44.656 77.298 5.4524 87.819-21.612 5.7998-23.477 5.4407-35.807-6.8901-14.733-14.734-14.034-22.344 3.0344-33.003 15.728-9.8223 18.651-24.006 5.8277-28.28zm52.234-111.7c13.334 0 4.8225 43.978-11.711 60.513-22.651 22.651-42.544 23.437-36.651 1.4484 2.3486-8.7629 4.3384-22.306 4.4219-30.095 0.1339-12.504 26.833-31.866 43.941-31.866zm-38.576-44.434c5.7056-45.544 43.812-52.453 44.138-8.0022 0.0596 8.1592-5.468 19.624-12.284 25.478-30.952 26.581-36.96 23.286-31.854-17.476zm-20.101 268.82c-22.054-5.7667-10.64-30.054 1.0364-26.881 5.6108 1.5244 16.428 2.4696 24.038 2.1014 33.346-1.6147 48.725 40.803 24.243 66.863h-5e-4c-15.04 16.01-40.983 22.137-51.061 12.059-8.6348-8.6346-4.874-31.071 5.9009-35.206 15.054-5.7763 13.159-14.408-4.1566-18.936zm32.481 75.647c41.346 1.788 50.535 23.224 24.27 56.614-28.071 35.686-70.743 21.281-60.293-20.353 3.0632-12.207 1.698-17.169-4.3792-15.917-4.8572 1.001-9.9832-5.795-11.391-15.102-4.0396-26.698 6.3039-7.2102 51.793-5.2413zm-27.705 115.68c-23.089-17.11-10.092-30.361 26.894-27.419 37.952 3.0186 47.955 20.937 32.508 58.231-11.201 27.04-26.443 34.896-51.17 26.37-22.182-7.6488-25.312-24.425-7.0813-37.952 11.732-8.7046 11.671-9.7289-1.1506-19.23zm-22.237-41.014c5.4844 8.8733-7.9368 17.156-13.415 8.291-5.4844-8.8738 7.938-17.153 13.415-8.291zm-601.35 843.57c-2.3071-3.7324-1.1069-33.208 2.6663-65.502 8.3455-71.424 8.2461-153.18-0.1934-158.4-12.596-7.7854-5.5872-37.22 15.048-63.185 30.579-38.479 15.756-46.821 31.866-60.191 8.7881-7.2935 10.622-6.5625 10.622 4.2339 0 38.587-30.074 320.35-35.638 333.9 1.361 0-12.776 27.906-24.37 9.1463zm317.3 962.82c-45.982 51.607-266.99 11.379-282.38-51.399-10.75-43.836 33.504-1.2727 122.45 11.603 32.736 4.739 66.137 5.0957 99.14 5.4119 86.12 0.8244 89.16 2.5442 60.79 34.384zm34.807-60.437c-60.365 23.725-270.91-3.1155-318.66-40.624-1.8921-1.4863-10.524-7.2668-9.0476-10.672 3.0166-6.9565 50.334 11.481 58.548 14.256 85.593 28.915 146.04 22.233 194.24 22.785 43.109 0.4941 112.42-0.4846 74.914 14.255zm16.928-52.924c-16.694 34.387-220.79 25.178-312.42-14.096-37.719-16.169-36.888-9.9451-18.255-136.62 24.334-165.44 18.227-163.48 38.117-158.28 122.24 31.93 128.06 28.342 331.94 29.289-1.0234 9.6853-29.424 279.71-39.38 279.71zm29.985-301.84c0 2.9338-156.46 5.8743-197.39-0.0769-58.287-8.4746-129.45-27.833-132.61-36.075-6.4299-16.756 4.5244-18.992 31.057-6.3396 50.533 24.097 204.51 35.421 291.82 21.46 36.428-5.8249 43.091 13.838 7.127 21.031zm179.69 45.445c-30.883 33.352-22.856 28.48-150.48 35.307v-34.205c0-42.207-5.9792-39.322 93.827-45.269 96.202-5.7317 100.07-2.7205 56.65 44.166zm69.541-377.38c-24.012 79.578-29.39 113.08-24.638 153.51 4.2771 36.388 3.2261 40.969-12.144 52.924-43.901 34.148-71.108 80.231-102.82 80.585-43.263 0.4822-54.731 49.486-86.197-6.4995-38.678-68.819 13.035-29.793 22.778-76.505 17.136-82.163 64.375-438.12 71.714-519.13 6.0142-66.372 36.821-210.83 48.523-227.54 16.991-24.26-3.9631-56.668 13.964-80.494 19.988-26.567 21.178 6.2732 4.6912 129.55-14.072 105.23-62.624 492.44-84.162 583.47-14.847 62.747-11.244 75.822 18.056 65.517 36.532-12.847 76.445-100.43 98.321-215.76 10.865-57.275 42.705-111.27 57.115-96.862 6.3307 6.3302-9.5343 105.3-25.205 157.23zm509.24 59.996c-62.598-36.425-154.25-67.284-217.56-118.65-34.41-27.919-55.466-27.264-44.572 1.3875 9.8135 25.812 84.612 99.092 119.11 116.69 34.693 17.7 39.787 36.175 9.9744 36.175-42.52 0-126.23-71.633-165.51-141.63-32.675-58.229-55.922-93.162-77.889-117.04-28.155-30.605-28.949-71.668-66.175-131.98-34.62-56.089-39.375-76.091-32.017-134.69 10.837-86.303 23.49-75.484 29.14 24.914 3.4089 60.577 6.8899 76.496 21.939 100.33 42.608 67.473 29.597 84.126 81.282 114.05 49.394 28.595 112.53 94.67 158.27 118.46 160.13 83.255 168.02 97.536 241.9 110.16 25.941 4.4312 59.4 13.287 74.353 19.681 33.004 14.111 110.82 13.467 182.97-1.5146 76.664-15.918 90.209-1.427 18.391 19.676-81.207 23.862-73.43 69.068-130.5 69.254 0.7085 0.7083-25.922-0.5696-43.679 2.7214-26.595 4.928-44.83-3.3557-51.876-23.566-10.089-28.939-35.87-50.065-61.1-50.065-11.984-2e-4 -32.893-6.4607-46.464-14.357zm237.14 372.9c-7.6826-5.325-37.071-21.744-65.307-36.488-62.078-32.414-62.839-34.735-9.8125-29.926 22.84 2.071 45.882 1.074 51.205-2.2156 9.282-5.7366 38.263 31.772 50.933 65.919 5.5869 15.059-7.3321 16.356-27.018 2.711zm80.419 25.743c-32.433-2.5781-33.168-3.1758-37.827-30.757-11.516-68.161-95.606-154.4-193.89-198.84-52.002-23.513-53.44-31.728-3.3828-19.313 78.006 19.347 150.33 64.853 211.53 133.1 117.13 130.62 128.17 124.12 23.575 115.81zm166.82-589.64c-8.5684 0-59.396 44.929-59.396 46.029-89.716 84.267-94.132 43.264-14.162-29.851 45.326-41.442 45.536-62.621 72.286-102.25 8.4465-12.512 12.689-32.044 12.689-58.42 0-41.584 15.06-56.536 23.862-23.691 18.155 67.744-2.9131 168.18-35.278 168.18zm365.48 505.08c0 3.958-5.0918 12.823-11.315 19.7-18.185 20.094 82.38 55.53 109.69 38.652 9.7676-6.0371 30.096 3.5925 27.007 12.793-6.8149 20.297-369.63 2.9619-428.11-20.455-45.545-18.237-43.215-41.927 3.5405-36 161.14 20.426 214.21 12.028 276.25-43.714 76.37-68.615 36.093-102.45-87.252-73.296-136.55 32.275-182.12 36.77-163.43 16.121 12.498-13.811 55.869-29.412 81.765-29.412 38.344 0 128.02-58.677 128.07-83.795 0.0596-31.834 12.357-26.369 37.692 16.751 29.946 50.969 23.696 30.456 56.943 75.895 14.038 19.185 24.668 26.555 38.306 26.555 22.816 0 79.54 20.79 79.54 29.152 1e-4 20.889-148.71 3.8393-148.71 51.052zm126.94-103.96c-21.419-35.127-18.32-39.978 25.534-39.978 40.554 0 57.201 12.681 39.665 30.217-12.593 12.593-9.4331 20.446 7.2534 18.027 8.4014-1.2185 16.594 1.6501 18.206 6.375v-5e-4c7.6894 22.534-76.257 8.9771-90.658-14.64zm333.96 130.3c-38.343-20.521-46.782-1.9023-13.309 29.366 24.802 23.169 25.52 21.476-18.929 44.658-28.639 14.937-14.035 73.463-63.056 44.983-8.4136-4.8879-31.022-5.9451-61.961-2.8962-40.993 4.0388-48.713 3.092-48.713-5.9766 0-12.349 59.941-32.569 96.549-32.569 51.763 0 76.114-28.126 51.473-59.453-40.893-51.987 29.68-82.723 74.987-32.659 14.206 15.697 2.9937 25.268-17.041 14.546z"/> <path d="m3646.4 201.97c5.4636 13.076 12.941 23.774 16.618 23.774 12.317 0 14.321-19.464 3.582-34.796-8.4009-11.994-9.2292-22.192-3.9495-48.612 7.0898-35.477 3.812-91.351-5.7039-97.232-14.186-8.7677-28.048 4.8532-20.083 19.735 14.041 26.235-7.6504 95.997 9.5363 137.13z"/> <path d="m1387 198.11c-18.636-18.635-30.019 98.445-19.637 98.445 6.9085 0 25.396-92.686 19.637-98.445z"/> <path d="m1635.4 360.35c-11.484-9.5306-180.56-25.576-198.2-18.809-27.358 10.498-4.3485 17.216 68.884 20.111 55.561 2.1969 86.091 6.6659 100.91 14.77 35.109 19.204 56.396 7.1585 28.404-16.073z"/> <path d="m3446 234.24c6.6094-6.6089 6.6094-10.386 0-16.995-6.6091-6.6093-8.4976-4.721-8.4976 8.4976 1e-4 13.218 1.889 15.106 8.4976 8.4972z"/> <path d="m1516.7 430.87c85.897 0.2061 108.03-4.3246 86.401-17.69-5.1355-3.1741-5.0292-7.4759 0.344-13.95 10.812-13.026-2.9186-23.558-18.206-0.2256-16.138 24.63-126.99 27.291-156.89 3.7662-9.9022-7.7892-20.762-14.162-24.131-14.162-10.898 0-6.4917 22.946 6.2662 32.63-0.7085 0 1.3104 9.381 106.22 9.6322z"/> <path d="m1628.6 261.8c10.102 16.345 20.773 0.1003 19.465-29.633-5.295-120.38-7.7754-147.5-15.644-171.07-4.8766-14.605-11.617-26.555-14.98-26.555-11.837 0-14.59 14.045-5.8716 29.949 17.508 31.936 9.7265 197.31 17.031 197.31z"/> <path d="m1574.4 180.17c-7.2166 4.4599-8.696 55.015-1.8109 61.9 8.4867 8.4868 16.716-2.9589 16.716-23.25 0-25.993-6.8102-43.652-14.905-38.65z"/> <path d="m1317.7 303.63c20.433 0-10.124-85.307 12.625-144.88 6.6831-17.5 10.228-34.931 7.8761-38.736-5.3184-8.6048 25.409-70.856 35.098-71.104 13.696-0.3518 46.028 60.886 46.028 87.179 0 14.141 3.7822 39.852 8.405 57.136 9.1982 34.39 4.5519 39.435-7.4464 64.374l-0.5879-17.703c-1.1725-35.323-14.309-40.947-14.425-6.1758-0.1512 45.717-21.027 76.333-16.112 89.95 1.8701 5.1813-5.2648 18.465-15.856 29.52-10.591 11.055-17.127 23.545-14.524 27.756-1.6644 0 14.283 19.204 23.024-4.7353 14.5-39.712 31.933-46.124 124.22-45.694 95.077 0.443 111.58-1.9207 111.58-15.987 0-5.1627 4.7798-11.221 10.622-13.463 17.022-6.5319 12.252-18.683-7.3341-18.683-23.067 0-37.45-19.581-65.298-40.884-14.553-11.133-15.287-14.7-8.2111-39.894 19.784-70.446-28.525-94.676 7.6747-85.591 21.239 5.3308 50.929-21.581 34.803-31.548-5.2129-3.2212-7.2878-9.4-4.6117-13.73 2.6766-4.3298 2.9827-10.92 0.6808-14.645-5.0465-8.1652-24.976-1.6502-24.976 8.1648 0 3.8276-7.1698 12.764-15.933 19.86-13.921 11.272-15.976 19.684-16.277 66.626-0.2045 31.936-3.7943 57.176-8.8516 62.234-14.325 14.325-9.6688 25.069 18.047 41.65 85.037 50.871 78.476 61.545-35.406 57.6-109.15-3.7809-108.08-3.3522-77.213-30.933 13.027-11.64 21.776-23.072 19.444-25.404-2.3326-2.3331 0.6578-11.719 6.646-20.858 9.7933-14.941 9.7959-19.843 0.0286-48.612-18.259-53.781-0.66-121.58 25.43-97.969 7.3016 6.608 13.328 9.1308 13.384 5.6061 0.0593-3.5246 3.3069-1.6285 7.2157 4.2131 6.1382 9.174 8.5702 8.7025 17.838-3.4572 9.1066-11.948 9.2405-15.169 0.8855-21.278-7.2532-5.3036-7.8916-10.296-2.4247-18.963 9.7916-15.523-5.2953-34.195-27.63-34.195-20.03 0-38.481 24.523-38.481 51.145 0 35.567-23.039 22.102-48.892-28.574-15.826-31.022-33.251-38.319-41.212-17.259-11.277 29.838-45.5 63.432-43.111 98.908 0.8588 12.752-2.2756 27.023-6.9651 31.713-17.48 17.481-8.4663 147.32 10.228 147.32zm176.14-261.75c6.0414 9.7752-5.7246 26.524-16.089 22.903-4.8683-1.7012-8.8516-7.2658-8.8516-12.367 1e-4 -11.522 19.295-19.672 24.941-10.536z"/> <path d="m3570 162.01c-17.032 0-11.336 47.863-22.314 72.583-6.3665 14.337 4.7754 16.845 15.727 3.5406 13.602-16.525 18.759-76.124 6.5871-76.124z"/> <path d="m3349 289.47c19.222 0 1.6958-55.299 22.045-106.16 7.7659-19.408 9.168-31.356 4.3804-37.32-7.8872-9.824 30.936-90.846 45.778-95.537 19.666-6.2155 52.191 54.691 40.883 76.558-12.401 23.98-13.384 59.748-2.4995 90.97 6.8008 19.509 6.0574 24.088-5.3108 32.697-25.404 19.24-39.206 13.452-34.007-14.262 7.1711-38.228 7.1309-42.295-0.4561-46.089-4.0613-2.0305-10.102 16.563-14.162 43.597-12.85 85.534-43.029 60.399-24.671 94.7 7.3093 13.658 7.5781 19.713 1.1594 26.132-15.954 15.955-10.35 48.01 8.394 48.01 23.11 0 43.159 25.919 72.112 30.196 71.239 10.525 132.4 5.3952 148.98-12.493 9.2285-9.958 24.3-17.703 34.448-17.703 19.553 0 23.275-12.395 10.75-35.799-15.009-28.044-44.038-35.29-144.94-36.18-132.54-1.1678-149.99-19.853-58.44-62.587 37.436-17.475 38.425-19.745 22.236-51.052-12.742-24.639-10.047-69.702 5.2708-88.159 5.1187-6.1676 10.176-24.198 11.239-40.066 2.3779-35.513 12.002-47.011 22.668-27.083 13.263 24.783 28.873-4.0702 28.873 21.51 0 20.763 5.74 18.661 44.905-16.445 37.22-33.362 34.328-53.572-3.6475-25.495-22.635 16.735-34.983 14.707-20.046-3.2921 7.4893-9.0236 6.8574-13.368-3.6287-24.956-26.398-29.168-74.233-6.5362-74.233 35.122 0 30.702-10.801 32.069-27.657 3.5009-31.866-54.008-113.96 20.457-105.2 95.431 1.5681 13.43-1.2161 35.794-6.1875 49.697-13.137 36.746-12.557 92.551 0.9627 92.551zm258.47 63.731c0 9.4095-11.976 5.2232-201.82-4.2326 38.458-0.5427 201.82-5.3777 201.82 4.2326zm-184.11 18.025c174.91 1.9877 219.52 4.0805 219.52 10.3 0 3.8951-5.9431 7.0813-13.208 7.0813-7.2639 0-21.309 6.3733-31.212 14.162-23.279 18.311-149.56 21.405-156.3 3.8298-2.1809-5.6835-13.69-12.853-25.575-15.933-30.798-7.9812-26.669-19.821 6.7815-19.441zm106.22-350.84c7.7898 0 14.163 4.5918 14.163 10.204 0 12.316-7.4937 17.332-19.473 13.035-14.285-5.1242-10.146-23.239 5.3108-23.239z"/> <path d="m3589.7 245.19c0 25.75 2.825 37.161 9.2048 37.177 6.6982 0.0173 8.6267-10.606 7.0811-39.004-2.6905-49.449-16.286-47.923-16.286 1.8278z"/> <path d="m3568.1 268.23c12.438 0 14.27-4.249 4.4478-10.319-8.6975-5.3753-19.277 10.319-4.4478 10.319z"/> <path d="m1468.9 250.11c0 12.438 4.249 14.27 10.319 4.4478 5.3697-8.6876-10.319-19.278-10.319-4.4478z"/> <path d="m2548.1 1413.5c-61.706 4.6669-63.504 0.4447-13.231-31.082 31.551-19.786 44.175-41.644 36.142-62.579-7.2507-18.895-25.77-12.362-25.77 9.0906 0 19.427-47.11 65.247-67.085 65.247-17.734 0-67.146-59.859-62.88-76.174 6.3574-24.311-12.096-19.774-34.675 8.5244-25.877 32.432-25.032 40.975 3.5405 35.79 19.358-3.5121 26.203-0.7507 43.088 17.382 11.04 11.857 22.99 21.558 26.555 21.558 3.5645 0 6.481 3.1862 6.481 7.0812 0 4.0809-22.135 7.0813-52.242 7.0813-95.265 0-59.866 32.573-65.307 32.573 3.4299 8.938 6.614 9.6862 14.25 3.3491 27.575-22.883 268.52 17.319 249.76-31.562-3.2359-8.4332-14.382-9.6274-58.626-6.2812z"/> <path d="m2274.4 1798.3c10.71 0.3134 33.813 4.4781 51.339 9.2552 32.069 8.7405 51.778 3.7144 38.298-9.7661-9.6533-9.6533-84.584-24.077-98.112-18.886-17.815 6.8362-12.596 18.781 8.4755 19.397z"/> <path d="m1431.7 3387.2c-14.795-5.6772-238.31 134.06-279.66 155.28-12.658 6.4958-23.014 14.915-23.014 18.71 0 38.215 190.96-100.07 270.53-137.77 33.673-15.953 46.701-30.638 32.138-36.227z"/> <path d="m2515.8 1506.8c-19.773-12.221 4.3362-31.177-30.161-31.177-27.067 0-32.14 15.791-6.3208 19.672 19.035 2.8612 18.9 3.0363-3.1206 4.0515-15.265 0.7036-23.014 4.6375-23.014 11.683 0 7.37 7.4102 10.622 24.205 10.622 32.785 0 51.028-7.0536 38.411-14.851z"/> <path d="m2849.4 1925.8c-3.3525 5.4246-2.7874 13.339 1.3049 18.27 17.371 20.93-10.989 66.002-29.735 47.256-5.6602-5.6602-5.7871-11.94-0.4438-21.924 9.0051-16.827 2.4065-25.916-10.836-14.925-11.982 9.9438-12.445 46.273-0.6514 51.032 27.571 11.125 52.76-4.1846 59.108-35.925 5.0737-25.368-9.333-59.016-18.747-43.784z"/> <path d="m1278.2 3316.2c13.624-16.416-5.9371-27.17-25.191-13.848-23.694 16.395-162.16 78.5-155.87 88.678 6.2998 10.193 4.9717 10.635 85.014-28.262 95.385-46.352 84.31-32.428 96.045-46.568z"/> <path d="m1336.1 3401.2c14.212-4.5886 16.945-24.29 3.369-24.29-12.21 0-98.758 52.953-156.82 84.124-19.163 10.288-36.158 22.654-37.767 27.481-12.018 36.052 152.52-74.823 191.22-87.315z"/> <path d="m1109.5 3635.7c-12.447-4.7769-37.138-63.928-37.138-88.971 0-24.361-4.7322-27.995-30.136-23.138-21.521 4.1138-26.926 23.307-6.564 23.307 22.752 0 24.738 66.576 54.678 96.516 11.564 11.564 20.6 15.033 29.681 11.394 25.655-10.279 214.34-116.34 218.27-122.68 25.896-41.9-212.69 109.75-228.79 103.58z"/> <path d="m2252.7 1080.6c29.21-5.5841 123.17 16.129 150.79 34.847 25.655 17.385 42.614 21.418 42.614 10.134 0-8.0282-20.11-28.831-27.871-28.831-3.0891 0-16.127-9.1775-28.975-20.394-33.276-29.052-116.94-36.55-146.74-13.149-15.163 11.908-9.7249 21.198 10.181 17.393z"/> <path d="m2398 906.55c107.9 47.795 112.96 18.594 79.458 5.8568-33.54-12.752-15.863-24.376 36.167-23.781 105.05 1.2006 12.024 30.623 21.251 45.555 6.2214 10.066 9.49 9.19 80.376-21.554 35.918-15.579 69.586-28.325 74.817-28.325 15.283 0 27.056-37.402-4.6748-20.421-16.233 8.6878-23.156 4.2197-17.263-11.139 2.3062-6.0098 12.072-10.927 21.7-10.927 20.331 0 31.433-13.154 18.072-21.412-10.125-6.2579-26.661-1.0481-84.703 26.687-69.489 33.205-127.07 29.69-251.38-15.345-94.142-34.104-96.743-10.814-58.868 2.3884 31.001 10.807 17.49 24.22-15.009 14.899-22.955-6.5834-35.948-4.5551-35.822 5.5923 0.0845 6.8427 69.274 22.423 135.88 51.927zm184.03-15.57c4.4875-13.463 62.417-35.94 62.417-24.218 0 18.75-69.122 44.33-62.417 24.218zm-165.05-20.841c14.776 0 31.684 16.392 24.41 23.665 0 3.1228-15.509 9.8612-29.208-3.8375-12.281-12.281-10.455-19.828 4.7978-19.828zm-66.738-28.325c11.83 0 39.28 18.115 39.28 25.921 0 11.176-12.728 11.952-30.096 1.8369-10.825-6.3051-17.924-27.758-9.1848-27.758z"/> <path d="m2376.4 1194.7c9.1609-1.3026 17.589-8.1086 18.963-15.313 1.9143-10.039-1.2512-12.438-14.018-10.622-9.1611 1.3031-17.59 8.109-18.963 15.313-1.9143 10.039 1.2512 12.437 14.018 10.622z"/> <path d="m2265.6 1160.5c-22.007-24.317 0.4207-36.687 53.062-29.266 48.718 6.8682 59.931 3.5281 52.568-15.659-4.97-12.951-76.308-15.691-107.09-4.1124-28.068 10.558-41.863 39.549-26.761 56.237v-4e-4c14.062 15.54 57.984 25.692 28.218-7.1997z"/> <path d="m2578.8 1081.6c-34.427 40.285-61.914 57.596-91.455 57.596-21.888 0-27.631 2.3689-24.639 10.165 2.145 5.5906 0.6726 11.24-3.2725 12.556-7.8862 2.6292-13.204 81.433-7.9216 117.43 8.2529 56.23 24.411 24.745 19.229-37.468-4.8455-58.168-4.5098-60.191 9.9861-60.191 13.28 0 15 4.0618 15 35.406 0 26.751 2.5967 35.406 10.622 35.406 13.332 0 15.126-70.558 2.1245-83.559-6.6089-6.6093-5.9006-8.4976 3.1887-8.4976 6.4272 0 14.565 5.144 18.084 11.432 4.0332 7.2075 17.246 11.957 35.758 12.856 38.558 1.8696 39.199-13.69 1.0354-25.124-37.685-11.29-36.58-13.826 22.497-51.623 54.552-34.902 74.356-38.665 114.72-21.799 24.112 10.075 25.649 9.9299 25.649-2.4194 0-35.152-120.93-36.888-150.61-2.1625z"/> <path d="m2070.8 1840.3c-9.4592 0-9.2993 30.533 0 24.784 9.3474-5.7768 9.269-24.784 0-24.784z"/> <path d="m2421.3 1146.3c-10.599 0-15.214 28.454-6.0935 37.574v5e-4c15.672 15.672 25.215-37.574 6.0935-37.574z"/> <path d="m2686.9 1191.2c0 33.471 49.091 14.053 39.436-1.5688-6.8916-11.15-39.436-9.8561-39.436 1.5688z"/> <path d="m2725.5 1141c7.9187-26.209-9.0764-6.0416-45.931-27.812-22.794-13.465-62.91-5.8927-91.492 17.268-14.798 11.991-13.923 12.336 33.316 13.123 28.846 0.4816 56.976 5.2898 69.389 11.861 22.579 11.953 27.344 9.9714 34.719-14.44z"/> </svg>